<mxfile host="app.diagrams.net" agent="Mozilla/5.0 (Windows NT 10.0; Win64; x64) AppleWebKit/537.36 (KHTML, like Gecko) Chrome/131.0.0.0 Safari/537.36 Edg/131.0.0.0" version="25.0.3" pages="5">
  <diagram name="Homepage" id="2cc2dc42-3aac-f2a9-1cec-7a8b7cbee084">
    <mxGraphModel dx="1042" dy="663" grid="1" gridSize="10" guides="1" tooltips="1" connect="1" arrows="1" fold="1" page="1" pageScale="1" pageWidth="1100" pageHeight="850" background="none" math="0" shadow="0">
      <root>
        <mxCell id="0" />
        <mxCell id="1" parent="0" />
        <mxCell id="7026571954dc6520-1" value="" style="strokeWidth=1;shadow=0;dashed=0;align=center;html=1;shape=mxgraph.mockup.containers.browserWindow;rSize=0;strokeColor=#666666;mainText=,;recursiveResize=0;rounded=0;labelBackgroundColor=none;fontFamily=Verdana;fontSize=12;" parent="1" vertex="1">
          <mxGeometry x="30" y="50" width="1050" height="820" as="geometry" />
        </mxCell>
        <mxCell id="7026571954dc6520-2" value="Homepage" style="strokeWidth=1;shadow=0;dashed=0;align=center;html=1;shape=mxgraph.mockup.containers.anchor;fontSize=17;fontColor=#666666;align=left;" parent="7026571954dc6520-1" vertex="1">
          <mxGeometry x="60" y="12" width="110" height="26" as="geometry" />
        </mxCell>
        <mxCell id="7026571954dc6520-3" value="https://www.skialpin.com" style="strokeWidth=1;shadow=0;dashed=0;align=center;html=1;shape=mxgraph.mockup.containers.anchor;rSize=0;fontSize=17;fontColor=#666666;align=left;" parent="7026571954dc6520-1" vertex="1">
          <mxGeometry x="130" y="60" width="250" height="26" as="geometry" />
        </mxCell>
        <mxCell id="7026571954dc6520-4" value="Ski Alpin" style="text;html=1;points=[];align=left;verticalAlign=top;spacingTop=-4;fontSize=30;fontFamily=Verdana" parent="7026571954dc6520-1" vertex="1">
          <mxGeometry x="30" y="140" width="340" height="50" as="geometry" />
        </mxCell>
        <mxCell id="I5MOeFJfxEEseXO9wNLl-1" value="" style="group" parent="7026571954dc6520-1" vertex="1" connectable="0">
          <mxGeometry x="700" y="120" width="220" height="60" as="geometry" />
        </mxCell>
        <mxCell id="7026571954dc6520-12" value="Search" style="text;html=1;points=[];align=left;verticalAlign=top;spacingTop=-4;fontSize=15;fontFamily=Verdana" parent="I5MOeFJfxEEseXO9wNLl-1" vertex="1">
          <mxGeometry width="170" height="30" as="geometry" />
        </mxCell>
        <mxCell id="7026571954dc6520-14" value="Search" style="strokeWidth=1;shadow=0;dashed=0;align=center;html=1;shape=mxgraph.mockup.forms.searchBox;strokeColor=#999999;mainText=;strokeColor2=#008cff;fontColor=#666666;fontSize=17;align=left;spacingLeft=3;rounded=0;labelBackgroundColor=none;" parent="I5MOeFJfxEEseXO9wNLl-1" vertex="1">
          <mxGeometry y="30" width="220" height="30" as="geometry" />
        </mxCell>
        <mxCell id="I5MOeFJfxEEseXO9wNLl-3" value="Feedback Formular" style="strokeWidth=1;shadow=0;dashed=0;align=center;html=1;shape=mxgraph.mockup.buttons.button;strokeColor=#666666;mainText=;buttonStyle=round;fontSize=17;fontStyle=0;fillColor=none;whiteSpace=wrap;rounded=0;labelBackgroundColor=none;" parent="7026571954dc6520-1" vertex="1">
          <mxGeometry x="95" y="760" width="210" height="30" as="geometry" />
        </mxCell>
        <mxCell id="I5MOeFJfxEEseXO9wNLl-4" value="Über mich" style="strokeWidth=1;shadow=0;dashed=0;align=center;html=1;shape=mxgraph.mockup.buttons.button;strokeColor=#666666;mainText=;buttonStyle=round;fontSize=17;fontStyle=0;fillColor=none;whiteSpace=wrap;rounded=0;labelBackgroundColor=none;" parent="7026571954dc6520-1" vertex="1">
          <mxGeometry x="740" y="760" width="170" height="30" as="geometry" />
        </mxCell>
        <mxCell id="I5MOeFJfxEEseXO9wNLl-5" value="Andere Kanäle" style="strokeWidth=1;shadow=0;dashed=0;align=center;html=1;shape=mxgraph.mockup.buttons.button;strokeColor=#666666;mainText=;buttonStyle=round;fontSize=17;fontStyle=0;fillColor=none;whiteSpace=wrap;rounded=0;labelBackgroundColor=none;" parent="7026571954dc6520-1" vertex="1">
          <mxGeometry x="440" y="760" width="170" height="30" as="geometry" />
        </mxCell>
        <mxCell id="I5MOeFJfxEEseXO9wNLl-8" value="Logos" style="rounded=1;whiteSpace=wrap;html=1;glass=0;shadow=0;direction=west;rotation=0;" parent="7026571954dc6520-1" vertex="1">
          <mxGeometry x="430" y="690" width="190" height="40" as="geometry" />
        </mxCell>
        <mxCell id="I5MOeFJfxEEseXO9wNLl-9" value="" style="verticalLabelPosition=bottom;verticalAlign=top;html=1;shape=mxgraph.flowchart.or;" parent="7026571954dc6520-1" vertex="1">
          <mxGeometry x="950" y="130" width="70" height="70" as="geometry" />
        </mxCell>
        <mxCell id="I5MOeFJfxEEseXO9wNLl-15" value="" style="line;strokeWidth=2;html=1;" parent="7026571954dc6520-1" vertex="1">
          <mxGeometry y="255" width="1050" height="10" as="geometry" />
        </mxCell>
        <mxCell id="I5MOeFJfxEEseXO9wNLl-16" value="" style="line;strokeWidth=2;direction=south;html=1;" parent="7026571954dc6520-1" vertex="1">
          <mxGeometry x="370" y="260" width="10" height="406" as="geometry" />
        </mxCell>
        <mxCell id="I5MOeFJfxEEseXO9wNLl-17" value="" style="line;strokeWidth=2;direction=south;html=1;" parent="7026571954dc6520-1" vertex="1">
          <mxGeometry x="670" y="260" width="10" height="406" as="geometry" />
        </mxCell>
        <mxCell id="I5MOeFJfxEEseXO9wNLl-18" value="" style="line;strokeWidth=2;html=1;" parent="7026571954dc6520-1" vertex="1">
          <mxGeometry x="-3.5" y="660" width="1050" height="10" as="geometry" />
        </mxCell>
        <mxCell id="I5MOeFJfxEEseXO9wNLl-19" value="&lt;font style=&quot;font-size: 30px;&quot;&gt;Basic Infos&lt;/font&gt;" style="rounded=0;whiteSpace=wrap;html=1;" parent="7026571954dc6520-1" vertex="1">
          <mxGeometry x="20" y="280" width="330" height="360" as="geometry" />
        </mxCell>
        <mxCell id="I5MOeFJfxEEseXO9wNLl-40" value="&lt;font style=&quot;font-size: 30px;&quot;&gt;Basic Infos&lt;/font&gt;" style="rounded=0;whiteSpace=wrap;html=1;" parent="7026571954dc6520-1" vertex="1">
          <mxGeometry x="700" y="280" width="330" height="360" as="geometry" />
        </mxCell>
        <mxCell id="I5MOeFJfxEEseXO9wNLl-41" value="&lt;font style=&quot;font-size: 30px;&quot;&gt;Basic Infos&lt;/font&gt;" style="rounded=0;whiteSpace=wrap;html=1;" parent="7026571954dc6520-1" vertex="1">
          <mxGeometry x="400" y="280" width="250" height="360" as="geometry" />
        </mxCell>
        <mxCell id="I5MOeFJfxEEseXO9wNLl-65" value="" style="group" parent="7026571954dc6520-1" vertex="1" connectable="0">
          <mxGeometry x="82" y="290" width="876" height="50" as="geometry" />
        </mxCell>
        <mxCell id="I5MOeFJfxEEseXO9wNLl-66" value="Thema 2" style="strokeWidth=1;shadow=0;dashed=0;align=center;html=1;shape=mxgraph.mockup.buttons.button;strokeColor=#666666;mainText=;buttonStyle=round;fontSize=17;fontStyle=0;fillColor=none;whiteSpace=wrap;rounded=0;labelBackgroundColor=none;" parent="I5MOeFJfxEEseXO9wNLl-65" vertex="1">
          <mxGeometry x="339" width="197" height="50" as="geometry" />
        </mxCell>
        <mxCell id="I5MOeFJfxEEseXO9wNLl-67" value="Thema 1" style="strokeWidth=1;shadow=0;dashed=0;align=center;html=1;shape=mxgraph.mockup.buttons.button;strokeColor=#666666;mainText=;buttonStyle=round;fontSize=17;fontStyle=0;fillColor=none;whiteSpace=wrap;rounded=0;labelBackgroundColor=none;" parent="I5MOeFJfxEEseXO9wNLl-65" vertex="1">
          <mxGeometry width="195" height="50" as="geometry" />
        </mxCell>
        <mxCell id="I5MOeFJfxEEseXO9wNLl-68" value="Thema 3" style="strokeWidth=1;shadow=0;dashed=0;align=center;html=1;shape=mxgraph.mockup.buttons.button;strokeColor=#666666;mainText=;buttonStyle=round;fontSize=17;fontStyle=0;fillColor=none;whiteSpace=wrap;rounded=0;labelBackgroundColor=none;" parent="I5MOeFJfxEEseXO9wNLl-65" vertex="1">
          <mxGeometry x="679" width="197" height="50" as="geometry" />
        </mxCell>
      </root>
    </mxGraphModel>
  </diagram>
  <diagram id="-f67lPw3lv6e3Egqv3oy" name="Thema 1">
    <mxGraphModel dx="1518" dy="769" grid="1" gridSize="10" guides="1" tooltips="1" connect="1" arrows="1" fold="1" page="1" pageScale="1" pageWidth="850" pageHeight="1100" math="0" shadow="0">
      <root>
        <mxCell id="0" />
        <mxCell id="1" parent="0" />
        <mxCell id="k2wiXhy36zTZ-ki1edMn-1" value="" style="strokeWidth=1;shadow=0;dashed=0;align=center;html=1;shape=mxgraph.mockup.containers.browserWindow;rSize=0;strokeColor=#666666;mainText=,;recursiveResize=0;rounded=0;labelBackgroundColor=none;fontFamily=Verdana;fontSize=12;" vertex="1" parent="1">
          <mxGeometry x="30" y="1020" width="1050" height="820" as="geometry" />
        </mxCell>
        <mxCell id="k2wiXhy36zTZ-ki1edMn-2" value="Thema1" style="strokeWidth=1;shadow=0;dashed=0;align=center;html=1;shape=mxgraph.mockup.containers.anchor;fontSize=17;fontColor=#666666;align=left;" vertex="1" parent="k2wiXhy36zTZ-ki1edMn-1">
          <mxGeometry x="60" y="12" width="110" height="26" as="geometry" />
        </mxCell>
        <mxCell id="k2wiXhy36zTZ-ki1edMn-3" value="https://www.skialpin/thema1.com" style="strokeWidth=1;shadow=0;dashed=0;align=center;html=1;shape=mxgraph.mockup.containers.anchor;rSize=0;fontSize=17;fontColor=#666666;align=left;" vertex="1" parent="k2wiXhy36zTZ-ki1edMn-1">
          <mxGeometry x="130" y="60" width="250" height="26" as="geometry" />
        </mxCell>
        <mxCell id="k2wiXhy36zTZ-ki1edMn-4" value="Thema 1" style="text;html=1;points=[];align=left;verticalAlign=top;spacingTop=-4;fontSize=30;fontFamily=Verdana" vertex="1" parent="k2wiXhy36zTZ-ki1edMn-1">
          <mxGeometry x="30" y="140" width="340" height="50" as="geometry" />
        </mxCell>
        <mxCell id="k2wiXhy36zTZ-ki1edMn-5" value="" style="group" vertex="1" connectable="0" parent="k2wiXhy36zTZ-ki1edMn-1">
          <mxGeometry x="700" y="120" width="220" height="60" as="geometry" />
        </mxCell>
        <mxCell id="k2wiXhy36zTZ-ki1edMn-6" value="Search" style="text;html=1;points=[];align=left;verticalAlign=top;spacingTop=-4;fontSize=15;fontFamily=Verdana" vertex="1" parent="k2wiXhy36zTZ-ki1edMn-5">
          <mxGeometry width="170" height="30" as="geometry" />
        </mxCell>
        <mxCell id="k2wiXhy36zTZ-ki1edMn-7" value="Search" style="strokeWidth=1;shadow=0;dashed=0;align=center;html=1;shape=mxgraph.mockup.forms.searchBox;strokeColor=#999999;mainText=;strokeColor2=#008cff;fontColor=#666666;fontSize=17;align=left;spacingLeft=3;rounded=0;labelBackgroundColor=none;" vertex="1" parent="k2wiXhy36zTZ-ki1edMn-5">
          <mxGeometry y="30" width="220" height="30" as="geometry" />
        </mxCell>
        <mxCell id="k2wiXhy36zTZ-ki1edMn-8" value="Feedback Formular" style="strokeWidth=1;shadow=0;dashed=0;align=center;html=1;shape=mxgraph.mockup.buttons.button;strokeColor=#666666;mainText=;buttonStyle=round;fontSize=17;fontStyle=0;fillColor=none;whiteSpace=wrap;rounded=0;labelBackgroundColor=none;" vertex="1" parent="k2wiXhy36zTZ-ki1edMn-1">
          <mxGeometry x="95" y="760" width="210" height="30" as="geometry" />
        </mxCell>
        <mxCell id="k2wiXhy36zTZ-ki1edMn-9" value="Über mich" style="strokeWidth=1;shadow=0;dashed=0;align=center;html=1;shape=mxgraph.mockup.buttons.button;strokeColor=#666666;mainText=;buttonStyle=round;fontSize=17;fontStyle=0;fillColor=none;whiteSpace=wrap;rounded=0;labelBackgroundColor=none;" vertex="1" parent="k2wiXhy36zTZ-ki1edMn-1">
          <mxGeometry x="740" y="760" width="170" height="30" as="geometry" />
        </mxCell>
        <mxCell id="k2wiXhy36zTZ-ki1edMn-10" value="Andere Kanäle" style="strokeWidth=1;shadow=0;dashed=0;align=center;html=1;shape=mxgraph.mockup.buttons.button;strokeColor=#666666;mainText=;buttonStyle=round;fontSize=17;fontStyle=0;fillColor=none;whiteSpace=wrap;rounded=0;labelBackgroundColor=none;" vertex="1" parent="k2wiXhy36zTZ-ki1edMn-1">
          <mxGeometry x="440" y="760" width="170" height="30" as="geometry" />
        </mxCell>
        <mxCell id="k2wiXhy36zTZ-ki1edMn-11" value="Logos" style="rounded=1;whiteSpace=wrap;html=1;glass=0;shadow=0;direction=west;rotation=0;" vertex="1" parent="k2wiXhy36zTZ-ki1edMn-1">
          <mxGeometry x="430" y="690" width="190" height="40" as="geometry" />
        </mxCell>
        <mxCell id="k2wiXhy36zTZ-ki1edMn-12" value="" style="verticalLabelPosition=bottom;verticalAlign=top;html=1;shape=mxgraph.flowchart.or;" vertex="1" parent="k2wiXhy36zTZ-ki1edMn-1">
          <mxGeometry x="950" y="130" width="70" height="70" as="geometry" />
        </mxCell>
        <mxCell id="k2wiXhy36zTZ-ki1edMn-13" value="" style="line;strokeWidth=2;html=1;" vertex="1" parent="k2wiXhy36zTZ-ki1edMn-1">
          <mxGeometry y="255" width="1050" height="10" as="geometry" />
        </mxCell>
        <mxCell id="k2wiXhy36zTZ-ki1edMn-14" value="" style="line;strokeWidth=2;html=1;" vertex="1" parent="k2wiXhy36zTZ-ki1edMn-1">
          <mxGeometry x="-3.5" y="660" width="1050" height="10" as="geometry" />
        </mxCell>
        <mxCell id="k2wiXhy36zTZ-ki1edMn-15" value="" style="line;strokeWidth=2;direction=south;html=1;" vertex="1" parent="k2wiXhy36zTZ-ki1edMn-1">
          <mxGeometry x="515" y="260" width="10" height="405" as="geometry" />
        </mxCell>
        <mxCell id="k2wiXhy36zTZ-ki1edMn-16" value="" style="line;strokeWidth=2;direction=south;html=1;" vertex="1" parent="k2wiXhy36zTZ-ki1edMn-1">
          <mxGeometry x="250" y="260" width="10" height="406" as="geometry" />
        </mxCell>
        <mxCell id="k2wiXhy36zTZ-ki1edMn-17" value="" style="line;strokeWidth=2;direction=south;html=1;" vertex="1" parent="k2wiXhy36zTZ-ki1edMn-1">
          <mxGeometry x="790" y="260" width="10" height="405" as="geometry" />
        </mxCell>
        <mxCell id="k2wiXhy36zTZ-ki1edMn-18" value="Unterthema1" style="rounded=1;whiteSpace=wrap;html=1;" vertex="1" parent="k2wiXhy36zTZ-ki1edMn-1">
          <mxGeometry x="20" y="330" width="210" height="310" as="geometry" />
        </mxCell>
        <mxCell id="TDnsoxZx_LsmrkMzh8zr-2" value="Titel" style="rounded=1;whiteSpace=wrap;html=1;" vertex="1" parent="k2wiXhy36zTZ-ki1edMn-1">
          <mxGeometry x="20" y="280" width="210" height="40" as="geometry" />
        </mxCell>
        <mxCell id="TDnsoxZx_LsmrkMzh8zr-3" value="Unterthema2" style="rounded=1;whiteSpace=wrap;html=1;" vertex="1" parent="k2wiXhy36zTZ-ki1edMn-1">
          <mxGeometry x="290" y="330" width="210" height="310" as="geometry" />
        </mxCell>
        <mxCell id="TDnsoxZx_LsmrkMzh8zr-4" value="Titel" style="rounded=1;whiteSpace=wrap;html=1;" vertex="1" parent="k2wiXhy36zTZ-ki1edMn-1">
          <mxGeometry x="290" y="280" width="210" height="40" as="geometry" />
        </mxCell>
        <mxCell id="TDnsoxZx_LsmrkMzh8zr-5" value="Unterthema3" style="rounded=1;whiteSpace=wrap;html=1;" vertex="1" parent="k2wiXhy36zTZ-ki1edMn-1">
          <mxGeometry x="550" y="330" width="210" height="310" as="geometry" />
        </mxCell>
        <mxCell id="TDnsoxZx_LsmrkMzh8zr-6" value="Titel" style="rounded=1;whiteSpace=wrap;html=1;" vertex="1" parent="k2wiXhy36zTZ-ki1edMn-1">
          <mxGeometry x="550" y="280" width="210" height="40" as="geometry" />
        </mxCell>
        <mxCell id="TDnsoxZx_LsmrkMzh8zr-7" value="Unterthema4" style="rounded=1;whiteSpace=wrap;html=1;" vertex="1" parent="k2wiXhy36zTZ-ki1edMn-1">
          <mxGeometry x="820" y="330" width="210" height="310" as="geometry" />
        </mxCell>
        <mxCell id="TDnsoxZx_LsmrkMzh8zr-8" value="Titel" style="rounded=1;whiteSpace=wrap;html=1;" vertex="1" parent="k2wiXhy36zTZ-ki1edMn-1">
          <mxGeometry x="820" y="280" width="210" height="40" as="geometry" />
        </mxCell>
      </root>
    </mxGraphModel>
  </diagram>
  <diagram id="uxV00o2r5_Ag2sNT2vz0" name="Thema 2">
    <mxGraphModel dx="1613" dy="818" grid="1" gridSize="10" guides="1" tooltips="1" connect="1" arrows="1" fold="1" page="1" pageScale="1" pageWidth="850" pageHeight="1100" math="0" shadow="0">
      <root>
        <mxCell id="0" />
        <mxCell id="1" parent="0" />
        <mxCell id="1unE6LDkygPd2iNcOb9P-1" value="" style="strokeWidth=1;shadow=0;dashed=0;align=center;html=1;shape=mxgraph.mockup.containers.browserWindow;rSize=0;strokeColor=#666666;mainText=,;recursiveResize=0;rounded=0;labelBackgroundColor=none;fontFamily=Verdana;fontSize=12;" vertex="1" parent="1">
          <mxGeometry x="30" y="1020" width="1050" height="820" as="geometry" />
        </mxCell>
        <mxCell id="1unE6LDkygPd2iNcOb9P-2" value="Thema2" style="strokeWidth=1;shadow=0;dashed=0;align=center;html=1;shape=mxgraph.mockup.containers.anchor;fontSize=17;fontColor=#666666;align=left;" vertex="1" parent="1unE6LDkygPd2iNcOb9P-1">
          <mxGeometry x="60" y="12" width="110" height="26" as="geometry" />
        </mxCell>
        <mxCell id="1unE6LDkygPd2iNcOb9P-3" value="https://www.skialpin/thema2.com" style="strokeWidth=1;shadow=0;dashed=0;align=center;html=1;shape=mxgraph.mockup.containers.anchor;rSize=0;fontSize=17;fontColor=#666666;align=left;" vertex="1" parent="1unE6LDkygPd2iNcOb9P-1">
          <mxGeometry x="130" y="60" width="250" height="26" as="geometry" />
        </mxCell>
        <mxCell id="1unE6LDkygPd2iNcOb9P-4" value="Thema 2" style="text;html=1;points=[];align=left;verticalAlign=top;spacingTop=-4;fontSize=30;fontFamily=Verdana" vertex="1" parent="1unE6LDkygPd2iNcOb9P-1">
          <mxGeometry x="30" y="140" width="340" height="50" as="geometry" />
        </mxCell>
        <mxCell id="1unE6LDkygPd2iNcOb9P-5" value="" style="group" vertex="1" connectable="0" parent="1unE6LDkygPd2iNcOb9P-1">
          <mxGeometry x="700" y="120" width="220" height="60" as="geometry" />
        </mxCell>
        <mxCell id="1unE6LDkygPd2iNcOb9P-6" value="Search" style="text;html=1;points=[];align=left;verticalAlign=top;spacingTop=-4;fontSize=15;fontFamily=Verdana" vertex="1" parent="1unE6LDkygPd2iNcOb9P-5">
          <mxGeometry width="170" height="30" as="geometry" />
        </mxCell>
        <mxCell id="1unE6LDkygPd2iNcOb9P-7" value="Search" style="strokeWidth=1;shadow=0;dashed=0;align=center;html=1;shape=mxgraph.mockup.forms.searchBox;strokeColor=#999999;mainText=;strokeColor2=#008cff;fontColor=#666666;fontSize=17;align=left;spacingLeft=3;rounded=0;labelBackgroundColor=none;" vertex="1" parent="1unE6LDkygPd2iNcOb9P-5">
          <mxGeometry y="30" width="220" height="30" as="geometry" />
        </mxCell>
        <mxCell id="1unE6LDkygPd2iNcOb9P-8" value="Feedback Formular" style="strokeWidth=1;shadow=0;dashed=0;align=center;html=1;shape=mxgraph.mockup.buttons.button;strokeColor=#666666;mainText=;buttonStyle=round;fontSize=17;fontStyle=0;fillColor=none;whiteSpace=wrap;rounded=0;labelBackgroundColor=none;" vertex="1" parent="1unE6LDkygPd2iNcOb9P-1">
          <mxGeometry x="95" y="760" width="210" height="30" as="geometry" />
        </mxCell>
        <mxCell id="1unE6LDkygPd2iNcOb9P-9" value="Über mich" style="strokeWidth=1;shadow=0;dashed=0;align=center;html=1;shape=mxgraph.mockup.buttons.button;strokeColor=#666666;mainText=;buttonStyle=round;fontSize=17;fontStyle=0;fillColor=none;whiteSpace=wrap;rounded=0;labelBackgroundColor=none;" vertex="1" parent="1unE6LDkygPd2iNcOb9P-1">
          <mxGeometry x="740" y="760" width="170" height="30" as="geometry" />
        </mxCell>
        <mxCell id="1unE6LDkygPd2iNcOb9P-10" value="Andere Kanäle" style="strokeWidth=1;shadow=0;dashed=0;align=center;html=1;shape=mxgraph.mockup.buttons.button;strokeColor=#666666;mainText=;buttonStyle=round;fontSize=17;fontStyle=0;fillColor=none;whiteSpace=wrap;rounded=0;labelBackgroundColor=none;" vertex="1" parent="1unE6LDkygPd2iNcOb9P-1">
          <mxGeometry x="440" y="760" width="170" height="30" as="geometry" />
        </mxCell>
        <mxCell id="1unE6LDkygPd2iNcOb9P-11" value="Logos" style="rounded=1;whiteSpace=wrap;html=1;glass=0;shadow=0;direction=west;rotation=0;" vertex="1" parent="1unE6LDkygPd2iNcOb9P-1">
          <mxGeometry x="430" y="690" width="190" height="40" as="geometry" />
        </mxCell>
        <mxCell id="1unE6LDkygPd2iNcOb9P-12" value="" style="verticalLabelPosition=bottom;verticalAlign=top;html=1;shape=mxgraph.flowchart.or;" vertex="1" parent="1unE6LDkygPd2iNcOb9P-1">
          <mxGeometry x="950" y="130" width="70" height="70" as="geometry" />
        </mxCell>
        <mxCell id="1unE6LDkygPd2iNcOb9P-13" value="" style="line;strokeWidth=2;html=1;" vertex="1" parent="1unE6LDkygPd2iNcOb9P-1">
          <mxGeometry y="255" width="1050" height="10" as="geometry" />
        </mxCell>
        <mxCell id="1unE6LDkygPd2iNcOb9P-14" value="" style="line;strokeWidth=2;html=1;" vertex="1" parent="1unE6LDkygPd2iNcOb9P-1">
          <mxGeometry x="-3.5" y="660" width="1050" height="10" as="geometry" />
        </mxCell>
        <mxCell id="1unE6LDkygPd2iNcOb9P-17" value="" style="line;strokeWidth=2;direction=south;html=1;" vertex="1" parent="1unE6LDkygPd2iNcOb9P-1">
          <mxGeometry x="516.5" y="260" width="10" height="404" as="geometry" />
        </mxCell>
        <mxCell id="1unE6LDkygPd2iNcOb9P-18" value="Unterthema1" style="rounded=1;whiteSpace=wrap;html=1;" vertex="1" parent="1unE6LDkygPd2iNcOb9P-1">
          <mxGeometry x="20" y="340" width="210" height="300" as="geometry" />
        </mxCell>
        <mxCell id="UJ_drRkPXDHU1ZP2RBYk-1" value="Titel" style="rounded=1;whiteSpace=wrap;html=1;" vertex="1" parent="1unE6LDkygPd2iNcOb9P-1">
          <mxGeometry x="20" y="270" width="210" height="60" as="geometry" />
        </mxCell>
        <mxCell id="UJ_drRkPXDHU1ZP2RBYk-2" value="Unterthema2" style="rounded=1;whiteSpace=wrap;html=1;" vertex="1" parent="1unE6LDkygPd2iNcOb9P-1">
          <mxGeometry x="540" y="340" width="210" height="300" as="geometry" />
        </mxCell>
        <mxCell id="UJ_drRkPXDHU1ZP2RBYk-3" value="Titel" style="rounded=1;whiteSpace=wrap;html=1;" vertex="1" parent="1unE6LDkygPd2iNcOb9P-1">
          <mxGeometry x="540" y="270" width="210" height="60" as="geometry" />
        </mxCell>
        <mxCell id="UJ_drRkPXDHU1ZP2RBYk-4" value="Bild" style="rounded=1;whiteSpace=wrap;html=1;" vertex="1" parent="1unE6LDkygPd2iNcOb9P-1">
          <mxGeometry x="260" y="270" width="230" height="370" as="geometry" />
        </mxCell>
        <mxCell id="UJ_drRkPXDHU1ZP2RBYk-5" value="Bild" style="rounded=1;whiteSpace=wrap;html=1;" vertex="1" parent="1unE6LDkygPd2iNcOb9P-1">
          <mxGeometry x="790" y="270" width="230" height="370" as="geometry" />
        </mxCell>
      </root>
    </mxGraphModel>
  </diagram>
  <diagram id="vRgq7AKcBnv7XccfDBKY" name="Thema 3">
    <mxGraphModel dx="1720" dy="872" grid="1" gridSize="10" guides="1" tooltips="1" connect="1" arrows="1" fold="1" page="1" pageScale="1" pageWidth="850" pageHeight="1100" math="0" shadow="0">
      <root>
        <mxCell id="0" />
        <mxCell id="1" parent="0" />
        <mxCell id="EhjjpUitQ_umtnrDwvoj-1" value="" style="strokeWidth=1;shadow=0;dashed=0;align=center;html=1;shape=mxgraph.mockup.containers.browserWindow;rSize=0;strokeColor=#666666;mainText=,;recursiveResize=0;rounded=0;labelBackgroundColor=none;fontFamily=Verdana;fontSize=12;" vertex="1" parent="1">
          <mxGeometry x="40" y="1020" width="1060" height="820" as="geometry" />
        </mxCell>
        <mxCell id="EhjjpUitQ_umtnrDwvoj-2" value="Thema3" style="strokeWidth=1;shadow=0;dashed=0;align=center;html=1;shape=mxgraph.mockup.containers.anchor;fontSize=17;fontColor=#666666;align=left;" vertex="1" parent="EhjjpUitQ_umtnrDwvoj-1">
          <mxGeometry x="60" y="12" width="110" height="26" as="geometry" />
        </mxCell>
        <mxCell id="EhjjpUitQ_umtnrDwvoj-3" value="https://www.skialpin/thema3.com" style="strokeWidth=1;shadow=0;dashed=0;align=center;html=1;shape=mxgraph.mockup.containers.anchor;rSize=0;fontSize=17;fontColor=#666666;align=left;" vertex="1" parent="EhjjpUitQ_umtnrDwvoj-1">
          <mxGeometry x="130" y="60" width="250" height="26" as="geometry" />
        </mxCell>
        <mxCell id="EhjjpUitQ_umtnrDwvoj-4" value="Thema 3" style="text;html=1;points=[];align=left;verticalAlign=top;spacingTop=-4;fontSize=30;fontFamily=Verdana" vertex="1" parent="EhjjpUitQ_umtnrDwvoj-1">
          <mxGeometry x="30" y="140" width="340" height="50" as="geometry" />
        </mxCell>
        <mxCell id="EhjjpUitQ_umtnrDwvoj-5" value="" style="group" vertex="1" connectable="0" parent="EhjjpUitQ_umtnrDwvoj-1">
          <mxGeometry x="700" y="120" width="220" height="60" as="geometry" />
        </mxCell>
        <mxCell id="EhjjpUitQ_umtnrDwvoj-6" value="Search" style="text;html=1;points=[];align=left;verticalAlign=top;spacingTop=-4;fontSize=15;fontFamily=Verdana" vertex="1" parent="EhjjpUitQ_umtnrDwvoj-5">
          <mxGeometry width="170" height="30" as="geometry" />
        </mxCell>
        <mxCell id="EhjjpUitQ_umtnrDwvoj-7" value="Search" style="strokeWidth=1;shadow=0;dashed=0;align=center;html=1;shape=mxgraph.mockup.forms.searchBox;strokeColor=#999999;mainText=;strokeColor2=#008cff;fontColor=#666666;fontSize=17;align=left;spacingLeft=3;rounded=0;labelBackgroundColor=none;" vertex="1" parent="EhjjpUitQ_umtnrDwvoj-5">
          <mxGeometry y="30" width="220" height="30" as="geometry" />
        </mxCell>
        <mxCell id="EhjjpUitQ_umtnrDwvoj-8" value="Feedback Formular" style="strokeWidth=1;shadow=0;dashed=0;align=center;html=1;shape=mxgraph.mockup.buttons.button;strokeColor=#666666;mainText=;buttonStyle=round;fontSize=17;fontStyle=0;fillColor=none;whiteSpace=wrap;rounded=0;labelBackgroundColor=none;" vertex="1" parent="EhjjpUitQ_umtnrDwvoj-1">
          <mxGeometry x="95" y="760" width="210" height="30" as="geometry" />
        </mxCell>
        <mxCell id="EhjjpUitQ_umtnrDwvoj-9" value="Über mich" style="strokeWidth=1;shadow=0;dashed=0;align=center;html=1;shape=mxgraph.mockup.buttons.button;strokeColor=#666666;mainText=;buttonStyle=round;fontSize=17;fontStyle=0;fillColor=none;whiteSpace=wrap;rounded=0;labelBackgroundColor=none;" vertex="1" parent="EhjjpUitQ_umtnrDwvoj-1">
          <mxGeometry x="740" y="760" width="170" height="30" as="geometry" />
        </mxCell>
        <mxCell id="EhjjpUitQ_umtnrDwvoj-10" value="Andere Kanäle" style="strokeWidth=1;shadow=0;dashed=0;align=center;html=1;shape=mxgraph.mockup.buttons.button;strokeColor=#666666;mainText=;buttonStyle=round;fontSize=17;fontStyle=0;fillColor=none;whiteSpace=wrap;rounded=0;labelBackgroundColor=none;" vertex="1" parent="EhjjpUitQ_umtnrDwvoj-1">
          <mxGeometry x="440" y="760" width="170" height="30" as="geometry" />
        </mxCell>
        <mxCell id="EhjjpUitQ_umtnrDwvoj-11" value="Logos" style="rounded=1;whiteSpace=wrap;html=1;glass=0;shadow=0;direction=west;rotation=0;" vertex="1" parent="EhjjpUitQ_umtnrDwvoj-1">
          <mxGeometry x="430" y="690" width="190" height="40" as="geometry" />
        </mxCell>
        <mxCell id="EhjjpUitQ_umtnrDwvoj-12" value="" style="verticalLabelPosition=bottom;verticalAlign=top;html=1;shape=mxgraph.flowchart.or;" vertex="1" parent="EhjjpUitQ_umtnrDwvoj-1">
          <mxGeometry x="950" y="130" width="70" height="70" as="geometry" />
        </mxCell>
        <mxCell id="EhjjpUitQ_umtnrDwvoj-13" value="" style="line;strokeWidth=2;html=1;" vertex="1" parent="EhjjpUitQ_umtnrDwvoj-1">
          <mxGeometry y="255" width="1050" height="10" as="geometry" />
        </mxCell>
        <mxCell id="EhjjpUitQ_umtnrDwvoj-14" value="" style="line;strokeWidth=2;html=1;" vertex="1" parent="EhjjpUitQ_umtnrDwvoj-1">
          <mxGeometry x="1" y="455" width="1059" height="10" as="geometry" />
        </mxCell>
        <mxCell id="EhjjpUitQ_umtnrDwvoj-15" value="" style="line;strokeWidth=2;direction=south;html=1;" vertex="1" parent="EhjjpUitQ_umtnrDwvoj-1">
          <mxGeometry x="515" y="260" width="10" height="400" as="geometry" />
        </mxCell>
        <mxCell id="EhjjpUitQ_umtnrDwvoj-16" value="" style="line;strokeWidth=2;direction=south;html=1;" vertex="1" parent="EhjjpUitQ_umtnrDwvoj-1">
          <mxGeometry x="250" y="260" width="10" height="400" as="geometry" />
        </mxCell>
        <mxCell id="EhjjpUitQ_umtnrDwvoj-17" value="" style="line;strokeWidth=2;direction=south;html=1;" vertex="1" parent="EhjjpUitQ_umtnrDwvoj-1">
          <mxGeometry x="790" y="260" width="10" height="400" as="geometry" />
        </mxCell>
        <mxCell id="rlT4aXJ8Er4d0wwletbs-1" value="Person5" style="rounded=1;whiteSpace=wrap;html=1;" vertex="1" parent="EhjjpUitQ_umtnrDwvoj-1">
          <mxGeometry x="20" y="480" width="210" height="160" as="geometry" />
        </mxCell>
        <mxCell id="rlT4aXJ8Er4d0wwletbs-2" value="" style="line;strokeWidth=2;html=1;" vertex="1" parent="EhjjpUitQ_umtnrDwvoj-1">
          <mxGeometry y="654" width="1060" height="10" as="geometry" />
        </mxCell>
        <mxCell id="rlT4aXJ8Er4d0wwletbs-3" value="Person1" style="rounded=1;whiteSpace=wrap;html=1;" vertex="1" parent="EhjjpUitQ_umtnrDwvoj-1">
          <mxGeometry x="20" y="280" width="210" height="160" as="geometry" />
        </mxCell>
        <mxCell id="rlT4aXJ8Er4d0wwletbs-4" value="Person6" style="rounded=1;whiteSpace=wrap;html=1;" vertex="1" parent="EhjjpUitQ_umtnrDwvoj-1">
          <mxGeometry x="280" y="480" width="210" height="160" as="geometry" />
        </mxCell>
        <mxCell id="rlT4aXJ8Er4d0wwletbs-5" value="Person2" style="rounded=1;whiteSpace=wrap;html=1;" vertex="1" parent="EhjjpUitQ_umtnrDwvoj-1">
          <mxGeometry x="280" y="280" width="210" height="160" as="geometry" />
        </mxCell>
        <mxCell id="rlT4aXJ8Er4d0wwletbs-6" value="Person7" style="rounded=1;whiteSpace=wrap;html=1;" vertex="1" parent="EhjjpUitQ_umtnrDwvoj-1">
          <mxGeometry x="550" y="480" width="210" height="160" as="geometry" />
        </mxCell>
        <mxCell id="rlT4aXJ8Er4d0wwletbs-7" value="Person3" style="rounded=1;whiteSpace=wrap;html=1;" vertex="1" parent="EhjjpUitQ_umtnrDwvoj-1">
          <mxGeometry x="550" y="280" width="210" height="160" as="geometry" />
        </mxCell>
        <mxCell id="rlT4aXJ8Er4d0wwletbs-8" value="Person8" style="rounded=1;whiteSpace=wrap;html=1;" vertex="1" parent="EhjjpUitQ_umtnrDwvoj-1">
          <mxGeometry x="820" y="480" width="210" height="160" as="geometry" />
        </mxCell>
        <mxCell id="rlT4aXJ8Er4d0wwletbs-9" value="Person4" style="rounded=1;whiteSpace=wrap;html=1;" vertex="1" parent="EhjjpUitQ_umtnrDwvoj-1">
          <mxGeometry x="820" y="290" width="210" height="160" as="geometry" />
        </mxCell>
      </root>
    </mxGraphModel>
  </diagram>
  <diagram id="iyuaH04wsnMmBbNYZt1s" name="Feedbackformular">
    <mxGraphModel dx="1843" dy="934" grid="1" gridSize="10" guides="1" tooltips="1" connect="1" arrows="1" fold="1" page="1" pageScale="1" pageWidth="850" pageHeight="1100" math="0" shadow="0">
      <root>
        <mxCell id="0" />
        <mxCell id="1" parent="0" />
        <mxCell id="fpiYzR5gFWC26pWJwWRW-1" value="" style="strokeWidth=1;shadow=0;dashed=0;align=center;html=1;shape=mxgraph.mockup.containers.browserWindow;rSize=0;strokeColor=#666666;mainText=,;recursiveResize=0;rounded=0;labelBackgroundColor=none;fontFamily=Verdana;fontSize=12;" vertex="1" parent="1">
          <mxGeometry x="30" y="1020" width="1050" height="820" as="geometry" />
        </mxCell>
        <mxCell id="fpiYzR5gFWC26pWJwWRW-2" value="Feedback" style="strokeWidth=1;shadow=0;dashed=0;align=center;html=1;shape=mxgraph.mockup.containers.anchor;fontSize=17;fontColor=#666666;align=left;" vertex="1" parent="fpiYzR5gFWC26pWJwWRW-1">
          <mxGeometry x="60" y="12" width="110" height="26" as="geometry" />
        </mxCell>
        <mxCell id="fpiYzR5gFWC26pWJwWRW-3" value="https://www.skialpin/feedback.com" style="strokeWidth=1;shadow=0;dashed=0;align=center;html=1;shape=mxgraph.mockup.containers.anchor;rSize=0;fontSize=17;fontColor=#666666;align=left;" vertex="1" parent="fpiYzR5gFWC26pWJwWRW-1">
          <mxGeometry x="130" y="60" width="250" height="26" as="geometry" />
        </mxCell>
        <mxCell id="fpiYzR5gFWC26pWJwWRW-4" value="Feedbackforular" style="text;html=1;points=[];align=left;verticalAlign=top;spacingTop=-4;fontSize=30;fontFamily=Verdana" vertex="1" parent="fpiYzR5gFWC26pWJwWRW-1">
          <mxGeometry x="30" y="140" width="340" height="50" as="geometry" />
        </mxCell>
        <mxCell id="fpiYzR5gFWC26pWJwWRW-5" value="" style="group" vertex="1" connectable="0" parent="fpiYzR5gFWC26pWJwWRW-1">
          <mxGeometry x="700" y="120" width="220" height="60" as="geometry" />
        </mxCell>
        <mxCell id="fpiYzR5gFWC26pWJwWRW-6" value="Search" style="text;html=1;points=[];align=left;verticalAlign=top;spacingTop=-4;fontSize=15;fontFamily=Verdana" vertex="1" parent="fpiYzR5gFWC26pWJwWRW-5">
          <mxGeometry width="170" height="30" as="geometry" />
        </mxCell>
        <mxCell id="fpiYzR5gFWC26pWJwWRW-7" value="Search" style="strokeWidth=1;shadow=0;dashed=0;align=center;html=1;shape=mxgraph.mockup.forms.searchBox;strokeColor=#999999;mainText=;strokeColor2=#008cff;fontColor=#666666;fontSize=17;align=left;spacingLeft=3;rounded=0;labelBackgroundColor=none;" vertex="1" parent="fpiYzR5gFWC26pWJwWRW-5">
          <mxGeometry y="30" width="220" height="30" as="geometry" />
        </mxCell>
        <mxCell id="fpiYzR5gFWC26pWJwWRW-8" value="Feedback Formular" style="strokeWidth=1;shadow=0;dashed=0;align=center;html=1;shape=mxgraph.mockup.buttons.button;strokeColor=#666666;mainText=;buttonStyle=round;fontSize=17;fontStyle=0;fillColor=none;whiteSpace=wrap;rounded=0;labelBackgroundColor=none;" vertex="1" parent="fpiYzR5gFWC26pWJwWRW-1">
          <mxGeometry x="95" y="760" width="210" height="30" as="geometry" />
        </mxCell>
        <mxCell id="fpiYzR5gFWC26pWJwWRW-9" value="Über mich" style="strokeWidth=1;shadow=0;dashed=0;align=center;html=1;shape=mxgraph.mockup.buttons.button;strokeColor=#666666;mainText=;buttonStyle=round;fontSize=17;fontStyle=0;fillColor=none;whiteSpace=wrap;rounded=0;labelBackgroundColor=none;" vertex="1" parent="fpiYzR5gFWC26pWJwWRW-1">
          <mxGeometry x="740" y="760" width="170" height="30" as="geometry" />
        </mxCell>
        <mxCell id="fpiYzR5gFWC26pWJwWRW-10" value="Andere Kanäle" style="strokeWidth=1;shadow=0;dashed=0;align=center;html=1;shape=mxgraph.mockup.buttons.button;strokeColor=#666666;mainText=;buttonStyle=round;fontSize=17;fontStyle=0;fillColor=none;whiteSpace=wrap;rounded=0;labelBackgroundColor=none;" vertex="1" parent="fpiYzR5gFWC26pWJwWRW-1">
          <mxGeometry x="440" y="760" width="170" height="30" as="geometry" />
        </mxCell>
        <mxCell id="fpiYzR5gFWC26pWJwWRW-11" value="Logos" style="rounded=1;whiteSpace=wrap;html=1;glass=0;shadow=0;direction=west;rotation=0;" vertex="1" parent="fpiYzR5gFWC26pWJwWRW-1">
          <mxGeometry x="430" y="690" width="190" height="40" as="geometry" />
        </mxCell>
        <mxCell id="fpiYzR5gFWC26pWJwWRW-12" value="" style="verticalLabelPosition=bottom;verticalAlign=top;html=1;shape=mxgraph.flowchart.or;" vertex="1" parent="fpiYzR5gFWC26pWJwWRW-1">
          <mxGeometry x="950" y="130" width="70" height="70" as="geometry" />
        </mxCell>
        <mxCell id="fpiYzR5gFWC26pWJwWRW-13" value="" style="line;strokeWidth=2;html=1;" vertex="1" parent="fpiYzR5gFWC26pWJwWRW-1">
          <mxGeometry y="230" width="1050" height="10" as="geometry" />
        </mxCell>
        <mxCell id="fpiYzR5gFWC26pWJwWRW-14" value="" style="line;strokeWidth=2;html=1;" vertex="1" parent="fpiYzR5gFWC26pWJwWRW-1">
          <mxGeometry x="-3.5" y="660" width="1050" height="10" as="geometry" />
        </mxCell>
        <mxCell id="fpiYzR5gFWC26pWJwWRW-23" value="&lt;div&gt;Frage&lt;/div&gt;&lt;div&gt;&lt;br&gt;&lt;/div&gt;&lt;div&gt;Antwort&lt;br&gt;&lt;/div&gt;" style="rounded=1;whiteSpace=wrap;html=1;" vertex="1" parent="fpiYzR5gFWC26pWJwWRW-1">
          <mxGeometry x="20" y="250" width="490" height="360" as="geometry" />
        </mxCell>
        <mxCell id="fpiYzR5gFWC26pWJwWRW-24" value="&lt;div&gt;Frage&lt;/div&gt;&lt;div&gt;&lt;br&gt;&lt;/div&gt;&lt;div&gt;Antwort&lt;br&gt;&lt;/div&gt;" style="rounded=1;whiteSpace=wrap;html=1;" vertex="1" parent="fpiYzR5gFWC26pWJwWRW-1">
          <mxGeometry x="540" y="250" width="490" height="360" as="geometry" />
        </mxCell>
        <mxCell id="fpiYzR5gFWC26pWJwWRW-25" value="Abschicken" style="rounded=1;whiteSpace=wrap;html=1;" vertex="1" parent="fpiYzR5gFWC26pWJwWRW-1">
          <mxGeometry x="391.5" y="620" width="260" height="30" as="geometry" />
        </mxCell>
      </root>
    </mxGraphModel>
  </diagram>
</mxfile>
